<svg width="24" height="27" viewBox="0 0 24 27" fill="none" xmlns="http://www.w3.org/2000/svg">
<path fill-rule="evenodd" clip-rule="evenodd" d="M12 0C12.7364 0 13.3333 0.59696 13.3333 1.33333V14.6667C13.3333 15.4031 12.7364 16 12 16C11.2636 16 10.6667 15.4031 10.6667 14.6667V1.33333C10.6667 0.59696 11.2636 0 12 0ZM7.82081 4.75937C8.18953 5.39679 7.97172 6.21243 7.33431 6.58115C4.54108 8.19695 2.66667 11.2137 2.66667 14.6667C2.66667 19.8213 6.84535 24 12 24C17.1547 24 21.3333 19.8213 21.3333 14.6667C21.3333 11.2137 19.4589 8.19695 16.6657 6.58115C16.0283 6.21243 15.8105 5.39679 16.1792 4.75937C16.5479 4.12196 17.3636 3.90415 18.0009 4.27287C21.5843 6.34571 24 10.2233 24 14.6667C24 21.2941 18.6275 26.6667 12 26.6667C5.37259 26.6667 0 21.2941 0 14.6667C0 10.2233 2.41571 6.34571 5.99903 4.27287C6.63644 3.90415 7.45208 4.12196 7.82081 4.75937Z" fill="white"/>
</svg>
