<svg width="20" height="20" viewBox="0 0 20 20" fill="none" xmlns="http://www.w3.org/2000/svg">
<path d="M16.2014 16.7048L13.2534 11.241C14.2379 10.5494 14.9763 9.56205 15.3617 8.42232C15.747 7.28259 15.7592 6.04973 15.3965 4.9026C15.0338 3.75547 14.315 2.75373 13.3445 2.04271C12.374 1.33169 11.2022 0.948374 9.99904 0.948374C8.79593 0.948374 7.62411 1.33169 6.65358 2.04271C5.68305 2.75373 4.9643 3.75547 4.60159 4.9026C4.23888 6.04973 4.25108 7.28259 4.63643 8.42232C5.02178 9.56205 5.76022 10.5494 6.74464 11.241L3.7985 16.7048C3.75989 16.7764 3.74382 16.8581 3.75241 16.939C3.76099 17.0199 3.79383 17.0964 3.84662 17.1583C3.8994 17.2203 3.96967 17.2648 4.04821 17.2861C4.12675 17.3074 4.2099 17.3045 4.28676 17.2777L6.44651 16.5244L7.0033 18.7432C7.02312 18.8222 7.06633 18.8933 7.12727 18.9473C7.18821 19.0012 7.26403 19.0356 7.3448 19.0457C7.36149 19.0477 7.37829 19.0487 7.3951 19.0487C7.46792 19.0487 7.53939 19.029 7.60191 18.9917C7.66443 18.9543 7.71568 18.9008 7.75022 18.8366L9.99996 14.6669L12.2495 18.8366C12.284 18.9008 12.3353 18.9543 12.3978 18.9917C12.4603 19.029 12.5318 19.0487 12.6046 19.0487C12.6214 19.0487 12.6382 19.0477 12.6549 19.0457C12.7357 19.0356 12.8115 19.0012 12.8724 18.9473C12.9334 18.8933 12.9766 18.8222 12.9964 18.7432L13.5534 16.5244L15.7134 17.2777C15.7903 17.3045 15.8734 17.3074 15.9519 17.2861C16.0305 17.2648 16.1008 17.2203 16.1535 17.1583C16.2063 17.0964 16.2392 17.0199 16.2478 16.939C16.2563 16.8581 16.24 16.7764 16.2014 16.7048ZM5.14674 6.61347C5.14674 5.65359 5.43137 4.71527 5.96465 3.91716C6.49793 3.11905 7.2559 2.497 8.14271 2.12967C9.02953 1.76234 10.0053 1.66623 10.9468 1.8535C11.8882 2.04076 12.753 2.50299 13.4317 3.18172C14.1105 3.86046 14.5727 4.72522 14.7599 5.66665C14.9472 6.60809 14.8511 7.58391 14.4838 8.47072C14.1164 9.35753 13.4944 10.1155 12.6963 10.6488C11.8982 11.1821 10.9598 11.4667 9.99996 11.4667C8.71324 11.4653 7.47962 10.9535 6.56977 10.0437C5.65991 9.13382 5.14814 7.9002 5.14674 6.61347ZM7.53378 17.5378L7.12259 15.8995C7.10893 15.8451 7.08409 15.7942 7.04966 15.7499C7.01523 15.7056 6.97195 15.669 6.9226 15.6424C6.87324 15.6158 6.81888 15.5997 6.76298 15.5952C6.70707 15.5907 6.65085 15.598 6.59788 15.6164L5.00298 16.1727L7.43871 11.6587C7.81378 11.8504 8.20922 11.9993 8.61758 12.1026L9.54217 13.8164L7.53378 17.5378ZM13.402 15.6164C13.3491 15.598 13.2929 15.5907 13.237 15.5952C13.181 15.5997 13.1267 15.6158 13.0773 15.6424C13.028 15.669 12.9847 15.7056 12.9503 15.7499C12.9158 15.7942 12.891 15.8451 12.8773 15.8995L12.4662 17.5378L9.61924 12.26C9.74522 12.2683 9.8719 12.2743 9.99996 12.2743C10.8904 12.2747 11.7682 12.0637 12.5612 11.6587L14.9969 16.1727L13.402 15.6164Z" fill="white"/>
<path d="M11.7335 9.68418C11.8002 9.71931 11.8754 9.73507 11.9505 9.72968C12.0257 9.72429 12.0979 9.69797 12.1588 9.65369C12.2198 9.6094 12.2672 9.54893 12.2955 9.47912C12.3239 9.40932 12.3322 9.33296 12.3194 9.25869L11.9883 7.32829L13.3907 5.96137C13.4447 5.90877 13.4829 5.84213 13.5009 5.76898C13.519 5.69582 13.5162 5.61907 13.4929 5.54741C13.4696 5.47575 13.4268 5.41203 13.3692 5.36347C13.3115 5.3149 13.2415 5.28343 13.1669 5.2726L11.2287 4.99086L10.3618 3.23467C10.3284 3.16714 10.2768 3.11029 10.2129 3.07053C10.1489 3.03078 10.0751 3.00971 9.99974 3.00971C9.92442 3.00971 9.8506 3.03078 9.78662 3.07053C9.72265 3.11029 9.67106 3.16714 9.6377 3.23467L8.7708 4.99086L6.83255 5.2726C6.75799 5.28343 6.68794 5.3149 6.63033 5.36347C6.57271 5.41203 6.52984 5.47575 6.50655 5.54741C6.48327 5.61907 6.4805 5.69582 6.49855 5.76898C6.51661 5.84213 6.55478 5.90877 6.60873 5.96137L8.01119 7.32829L7.68008 9.25869C7.66729 9.33296 7.67556 9.40932 7.70394 9.47912C7.73231 9.54893 7.77967 9.6094 7.84064 9.65369C7.90161 9.69797 7.97377 9.72429 8.04893 9.72968C8.1241 9.73507 8.19927 9.71931 8.26593 9.68418L9.99997 8.77298L11.7335 9.68418ZM8.61551 8.58861L8.84418 7.25561C8.8553 7.19114 8.85061 7.12494 8.83052 7.06268C8.81042 7.00043 8.77552 6.94398 8.7288 6.89819L7.75968 5.95398L9.09799 5.7597C9.16281 5.75026 9.22435 5.72521 9.27733 5.6867C9.33031 5.64819 9.37314 5.59738 9.40211 5.53864L9.99997 4.32586L10.5985 5.53864C10.6275 5.59738 10.6703 5.64819 10.7233 5.6867C10.7763 5.72521 10.8378 5.75026 10.9026 5.7597L12.241 5.95398L11.2718 6.89819C11.2251 6.94398 11.1902 7.00043 11.1701 7.06268C11.15 7.12494 11.1453 7.19114 11.1565 7.25561L11.3844 8.58861L10.1871 7.95937C10.1292 7.92892 10.0647 7.913 9.99928 7.913C9.93384 7.913 9.86938 7.92892 9.81145 7.95937L8.61551 8.58861Z" fill="white"/>
</svg>
