<svg width="20" height="20" viewBox="0 0 20 20" fill="none" xmlns="http://www.w3.org/2000/svg">
<g clip-path="url(#clip0_8_15)">
<path d="M19.3211 9.2387L17.9592 8.64929L16.8027 6.39882C16.4901 5.78263 15.8561 5.39862 15.164 5.40308H13.1725V4.84047C13.1725 3.8224 12.3598 2.99187 11.3418 2.99187H1.82193C0.803857 2.99187 0.00011881 3.82686 0.00011881 4.84047V13.4583C-0.00881161 14.079 0.486827 14.588 1.10749 14.597C1.11196 14.597 1.11642 14.597 1.12535 14.597H1.36201C1.36201 14.6416 1.35754 14.6595 1.35754 14.6863C1.35308 15.9633 2.38454 17.0037 3.66159 17.0082C4.93864 17.0126 5.97904 15.9812 5.9835 14.7041C5.9835 14.6952 5.9835 14.6907 5.9835 14.6818C5.9835 14.6505 5.9835 14.6371 5.97904 14.5925H13.6726C13.6726 14.6371 13.6726 14.655 13.6726 14.6818C13.6681 15.9588 14.6996 16.9992 15.9766 17.0037C17.2537 17.0082 18.2941 15.9767 18.2986 14.6997C18.2986 14.6907 18.2986 14.6863 18.2986 14.6773C18.2986 14.6461 18.2986 14.6327 18.2986 14.588H18.8746C19.4952 14.588 19.9998 14.0835 19.9998 13.4628C19.9998 13.4583 19.9998 13.4539 19.9998 13.4449V10.2746C20.0087 9.83704 19.7408 9.42177 19.3211 9.2387ZM3.67499 16.1196C2.88911 16.1196 2.25505 15.4855 2.25505 14.6997C2.25505 13.9138 2.88911 13.2797 3.67499 13.2797C4.46087 13.2797 5.09493 13.9138 5.09493 14.6997C5.09493 15.4811 4.4564 16.1196 3.67499 16.1196ZM12.2795 13.7128H5.76917C5.3941 12.8957 4.5725 12.3733 3.67499 12.3777C2.77302 12.3733 1.95588 12.8912 1.5808 13.7128H1.12535C0.986931 13.7128 0.893161 13.6057 0.893161 13.4673V11.1677H12.2795V13.7128ZM12.2795 4.84493V10.2746H0.893161V4.84493C0.893161 4.3225 1.2995 3.88937 1.82193 3.88937H11.3418C11.8642 3.89384 12.2839 4.3225 12.2795 4.84047V4.84493ZM13.1725 6.30059H15.164C15.5167 6.29612 15.8472 6.48813 16.0124 6.80516L16.9054 8.5332H13.1725V6.30059ZM15.99 16.1196C15.2042 16.1196 14.5701 15.4855 14.5701 14.6997C14.5701 13.9138 15.2042 13.2797 15.99 13.2797C16.7759 13.2797 17.41 13.9138 17.41 14.6997C17.41 15.4811 16.7759 16.1196 15.99 16.1196ZM19.1112 13.4673C19.1112 13.6057 19.0175 13.7128 18.879 13.7128H18.0842C17.5439 12.5564 16.1687 12.0562 15.0122 12.5965C14.521 12.8243 14.1236 13.2217 13.8959 13.7128H13.1725V9.42624H17.5484L18.9683 10.0514C19.0576 10.096 19.1157 10.1943 19.1112 10.2925V13.4673Z" fill="white"/>
</g>
<defs>
<clipPath id="clip0_8_15">
<rect width="20" height="20" fill="white"/>
</clipPath>
</defs>
</svg>
