<svg width="20" height="20" viewBox="0 0 20 20" fill="none" xmlns="http://www.w3.org/2000/svg">
<path d="M16.5664 17.4922H12.1875C12.0781 17.4922 11.9922 17.4062 11.9922 17.2969V8.00781H10C9.92578 8.00781 9.85546 7.96484 9.82421 7.89453C9.79296 7.82422 9.80468 7.74219 9.85546 7.6875L14.2305 2.57422C14.2695 2.53125 14.3203 2.50391 14.3789 2.50391C14.4375 2.50391 14.4922 2.52734 14.5273 2.57422L18.9062 7.68359C18.957 7.74219 18.9687 7.82422 18.9375 7.89062C18.9062 7.96094 18.8359 8.00391 18.7617 8.00391H16.7695V17.2969C16.7656 17.4062 16.6758 17.4922 16.5664 17.4922ZM12.3828 17.1016H16.3711V7.8125C16.3711 7.70312 16.457 7.61719 16.5664 7.61719H18.332L14.3789 3.00391L10.4258 7.61328H12.1914C12.3008 7.61328 12.3867 7.69922 12.3867 7.80859L12.3828 17.1016ZM5.62109 17.4922C5.5625 17.4922 5.51171 17.4687 5.47265 17.4219L1.09375 12.3164C1.04296 12.2578 1.03125 12.1758 1.0625 12.1094C1.09375 12.0391 1.16406 11.9961 1.23828 11.9961H3.23437V2.70312C3.23437 2.59375 3.32031 2.50781 3.42968 2.50781H7.80859C7.91796 2.50781 8.0039 2.59375 8.0039 2.70312V11.9922H10C10.0781 11.9922 10.1445 12.0352 10.1758 12.1055C10.207 12.1758 10.1953 12.2578 10.1445 12.3125L5.76953 17.4258C5.73437 17.4688 5.67968 17.4922 5.62109 17.4922ZM1.66796 12.3828L5.62109 16.9961L9.57421 12.3828H7.80859C7.69921 12.3828 7.61328 12.2969 7.61328 12.1875V2.89844H3.6289V12.1875C3.6289 12.2969 3.54296 12.3828 3.43359 12.3828H1.66796Z" fill="white" stroke="white" stroke-width="0.2"/>
</svg>
