<svg width="20" height="20" viewBox="0 0 20 20" fill="none" xmlns="http://www.w3.org/2000/svg">
<g clip-path="url(#clip0_8_19)">
<path d="M6.78571 12.8571H0.357143C0.16 12.8571 0 13.0168 0 13.2143C0 13.4118 0.16 13.5714 0.357143 13.5714H6.42857V19.6429C6.42857 19.8404 6.58857 20 6.78571 20C6.98286 20 7.14286 19.8404 7.14286 19.6429V13.2143C7.14286 13.0168 6.98286 12.8571 6.78571 12.8571Z" fill="white"/>
<path d="M13.2143 7.14286H19.6429C19.84 7.14286 20 6.98321 20 6.78571C20 6.58821 19.84 6.42857 19.6429 6.42857H13.5714V0.357143C13.5714 0.159643 13.4114 0 13.2143 0C13.0171 0 12.8571 0.159643 12.8571 0.357143V6.78571C12.8571 6.98321 13.0171 7.14286 13.2143 7.14286Z" fill="white"/>
<path d="M6.78571 0C6.58857 0 6.42857 0.159643 6.42857 0.357143V6.42857H0.357143C0.16 6.42857 0 6.58821 0 6.78571C0 6.98321 0.16 7.14286 0.357143 7.14286H6.78571C6.98286 7.14286 7.14286 6.98321 7.14286 6.78571V0.357143C7.14286 0.159643 6.98286 0 6.78571 0Z" fill="white"/>
<path d="M19.6429 12.8571H13.2143C13.0171 12.8571 12.8571 13.0168 12.8571 13.2143V19.6429C12.8571 19.8404 13.0171 20 13.2143 20C13.4114 20 13.5714 19.8404 13.5714 19.6429V13.5714H19.6429C19.84 13.5714 20 13.4118 20 13.2143C20 13.0168 19.84 12.8571 19.6429 12.8571Z" fill="white"/>
<path d="M1.78571 9.64285H0V10.3571H1.78571V9.64285Z" fill="white"/>
<path d="M15 9.64285H13.2143V10.3571H15V9.64285Z" fill="white"/>
<path d="M4.28571 9.64285H2.5V10.3571H4.28571V9.64285Z" fill="white"/>
<path d="M17.5 9.64285H15.7143V10.3571H17.5V9.64285Z" fill="white"/>
<path d="M6.78571 9.64285H5V10.3571H6.78571V9.64285Z" fill="white"/>
<path d="M20 9.64285H18.2143V10.3571H20V9.64285Z" fill="white"/>
<path d="M10.3571 0H9.64285V1.78571H10.3571V0Z" fill="white"/>
<path d="M10.3571 13.2143H9.64285V15H10.3571V13.2143Z" fill="white"/>
<path d="M10.3571 2.5H9.64285V4.28571H10.3571V2.5Z" fill="white"/>
<path d="M10.3571 15.7143H9.64285V17.5H10.3571V15.7143Z" fill="white"/>
<path d="M10.3571 5H9.64285V6.78571H10.3571V5Z" fill="white"/>
<path d="M10.3571 18.2143H9.64285V20H10.3571V18.2143Z" fill="white"/>
</g>
<defs>
<clipPath id="clip0_8_19">
<rect width="20" height="20" fill="white"/>
</clipPath>
</defs>
</svg>
