<svg width="20" height="20" viewBox="0 0 20 20" fill="none" xmlns="http://www.w3.org/2000/svg">
<g clip-path="url(#clip0_8_38)">
<path d="M20 19.3333H0V20H20V19.3333Z" fill="white"/>
<path d="M1.33333 18.6667H4.66667C4.85075 18.6667 5 18.5174 5 18.3333V12.3333C5 12.1492 4.85075 12 4.66667 12H1.33333C1.14925 12 1 12.1492 1 12.3333V18.3333C1 18.5174 1.14925 18.6667 1.33333 18.6667ZM1.66667 12.6667H4.33333V18H1.66667V12.6667Z" fill="white"/>
<path d="M10.6667 18.6667H14C14.1841 18.6667 14.3333 18.5174 14.3333 18.3333V8.33333C14.3333 8.14925 14.1841 8 14 8H10.6667C10.4826 8 10.3333 8.14925 10.3333 8.33333V18.3333C10.3333 18.5174 10.4826 18.6667 10.6667 18.6667ZM11 8.66667H13.6667V18H11V8.66667Z" fill="white"/>
<path d="M5.99999 18.6667H9.33332C9.51741 18.6667 9.66666 18.5174 9.66666 18.3333V4.33333C9.66666 4.14925 9.51741 4 9.33332 4H5.99999C5.81591 4 5.66666 4.14925 5.66666 4.33333V18.3333C5.66666 18.5174 5.81591 18.6667 5.99999 18.6667ZM6.33332 4.66667H8.99999V18H6.33332V4.66667Z" fill="white"/>
<path d="M15.3333 18.6667H18.6667C18.8508 18.6667 19 18.5174 19 18.3333V0.333333C19 0.14925 18.8508 0 18.6667 0H15.3333C15.1492 0 15 0.14925 15 0.333333V18.3333C15 18.5174 15.1492 18.6667 15.3333 18.6667ZM15.6667 0.666667H18.3333V18H15.6667V0.666667Z" fill="white"/>
</g>
<defs>
<clipPath id="clip0_8_38">
<rect width="20" height="20" fill="white"/>
</clipPath>
</defs>
</svg>
