<svg width="16" height="16" viewBox="0 0 16 16" fill="none" xmlns="http://www.w3.org/2000/svg">
<g clip-path="url(#clip0_1_10)">
<path d="M7.35934 14.6667V16H8.69269V14.6667H15.2713L12.16 10H13.938L11.2713 6H12.7333C12.7333 6 10.1593 1.89578 9.23069 0.575346C9.21069 0.546908 9.16734 0.492439 9.14403 0.466689C8.60237 -0.131842 7.40628 -0.175123 6.90737 0.466689L3.29734 6H4.78L2.11334 10H3.89069L0.779999 14.6667H7.35934ZM4.60466 8.66666L7.27131 4.66666H5.75331L7.89131 1.37531C7.96722 1.30741 8.08206 1.30741 8.15797 1.37531L10.284 4.66666H8.78L11.4467 8.66666H9.66666L12.778 13.3333H3.27134L6.38269 8.66666H4.60466V8.66666Z" fill="white"/>
<path d="M6.69199 12C7.06017 12 7.35864 11.7015 7.35864 11.3333C7.35864 10.9652 7.06017 10.6667 6.69199 10.6667C6.3238 10.6667 6.02533 10.9652 6.02533 11.3333C6.02533 11.7015 6.3238 12 6.69199 12Z" fill="white"/>
<path d="M9.35864 12.6667C9.72683 12.6667 10.0253 12.3682 10.0253 12C10.0253 11.6318 9.72683 11.3333 9.35864 11.3333C8.99046 11.3333 8.69199 11.6318 8.69199 12C8.69199 12.3682 8.99046 12.6667 9.35864 12.6667Z" fill="white"/>
<path d="M8.02533 10C8.39351 10 8.69199 9.70153 8.69199 9.33334C8.69199 8.96516 8.39351 8.66669 8.02533 8.66669C7.65715 8.66669 7.35867 8.96516 7.35867 9.33334C7.35867 9.70153 7.65715 10 8.02533 10Z" fill="white"/>
<path d="M7.35864 7.33331C7.72683 7.33331 8.0253 7.03484 8.0253 6.66666C8.0253 6.29847 7.72683 6 7.35864 6C6.99046 6 6.69199 6.29847 6.69199 6.66666C6.69199 7.03484 6.99046 7.33331 7.35864 7.33331Z" fill="white"/>
</g>
<defs>
<clipPath id="clip0_1_10">
<rect width="16" height="16" fill="white"/>
</clipPath>
</defs>
</svg>
