<svg width="16" height="16" viewBox="0 0 16 16" fill="none" xmlns="http://www.w3.org/2000/svg">
<g clip-path="url(#clip0_520_1754)">
<path d="M7.65067 10C7.47386 10 7.30429 10.0702 7.17926 10.1953C7.05424 10.3203 6.984 10.4899 6.984 10.6667V12.6667C6.984 13.1971 6.77329 13.7058 6.39821 14.0809C6.02314 14.456 5.51443 14.6667 4.984 14.6667H3.33333C2.8029 14.6667 2.29419 14.456 1.91912 14.0809C1.54405 13.7058 1.33333 13.1971 1.33333 12.6667V3.33333C1.33333 2.8029 1.54405 2.29419 1.91912 1.91912C2.29419 1.54405 2.8029 1.33333 3.33333 1.33333H4.984C5.51443 1.33333 6.02314 1.54405 6.39821 1.91912C6.77329 2.29419 6.984 2.8029 6.984 3.33333V5.33333C6.984 5.51014 7.05424 5.67971 7.17926 5.80474C7.30429 5.92976 7.47386 6 7.65067 6C7.82748 6 7.99705 5.92976 8.12207 5.80474C8.2471 5.67971 8.31733 5.51014 8.31733 5.33333V3.33333C8.31627 2.4496 7.96475 1.60237 7.33985 0.97748C6.71496 0.352588 5.86773 0.00105857 4.984 0H3.33333C2.4496 0.00105857 1.60237 0.352588 0.97748 0.97748C0.352588 1.60237 0.00105857 2.4496 0 3.33333V12.6667C0.00105857 13.5504 0.352588 14.3976 0.97748 15.0225C1.60237 15.6474 2.4496 15.9989 3.33333 16H4.984C5.86773 15.9989 6.71496 15.6474 7.33985 15.0225C7.96475 14.3976 8.31627 13.5504 8.31733 12.6667V10.6667C8.31733 10.4899 8.2471 10.3203 8.12207 10.1953C7.99705 10.0702 7.82748 10 7.65067 10Z" fill="white"/>
<path d="M15.2434 6.58593L12.186 3.5286C12.1245 3.46493 12.051 3.41414 11.9696 3.3792C11.8883 3.34426 11.8008 3.32587 11.7123 3.3251C11.6238 3.32433 11.536 3.3412 11.4541 3.37472C11.3721 3.40824 11.2977 3.45774 11.2351 3.52034C11.1725 3.58293 11.123 3.65737 11.0895 3.7393C11.056 3.82123 11.0391 3.90901 11.0399 3.99753C11.0406 4.08605 11.059 4.17353 11.094 4.25487C11.1289 4.3362 11.1797 4.40977 11.2434 4.47127L14.0847 7.31327L3.9987 7.33326C3.82189 7.33326 3.65232 7.4035 3.52729 7.52853C3.40227 7.65355 3.33203 7.82312 3.33203 7.99993C3.33203 8.17674 3.40227 8.34631 3.52729 8.47134C3.65232 8.59636 3.82189 8.6666 3.9987 8.6666L14.124 8.64593L11.242 11.5286C11.1784 11.5901 11.1276 11.6637 11.0926 11.745C11.0577 11.8263 11.0393 11.9138 11.0385 12.0023C11.0378 12.0909 11.0546 12.1786 11.0882 12.2606C11.1217 12.3425 11.1712 12.4169 11.2338 12.4795C11.2964 12.5421 11.3708 12.5916 11.4527 12.6251C11.5347 12.6587 11.6224 12.6755 11.711 12.6748C11.7995 12.674 11.887 12.6556 11.9683 12.6207C12.0496 12.5857 12.1232 12.5349 12.1847 12.4713L15.242 9.41393C15.6172 9.03905 15.828 8.53054 15.8283 8.00021C15.8285 7.46988 15.6181 6.96116 15.2434 6.58593Z" fill="white"/>
</g>
<defs>
<clipPath id="clip0_520_1754">
<rect width="16" height="16" fill="white"/>
</clipPath>
</defs>
</svg>
