<svg width="18" height="16" viewBox="0 0 18 16" fill="none" xmlns="http://www.w3.org/2000/svg">
<path d="M5.14938 3.54772V2.06961C5.14938 1.48133 5.63071 1 6.21899 1H11.781C12.3693 1 12.8506 1.48133 12.8506 2.06961V3.54772" stroke="white" stroke-miterlimit="22.9256" stroke-linecap="round" stroke-linejoin="round"/>
<path d="M16.3361 8.3278V13.9959C16.3361 14.5435 15.8879 14.9917 15.3403 14.9917H2.65976C2.11214 14.9917 1.66391 14.5436 1.66391 13.9959V8.361" stroke="white" stroke-miterlimit="22.9256" stroke-linecap="round" stroke-linejoin="round"/>
<path d="M7.6722 10.0042C4.16053 9.80336 1 8.79917 1 6.99161V4.63486C1 4.08638 1.44734 3.63901 1.99585 3.63901H16.0042C16.5526 3.63901 17 4.08641 17 4.63486V6.99161C17 8.81049 13.7995 9.8159 10.2614 10.0078" stroke="white" stroke-miterlimit="22.9256" stroke-linecap="round" stroke-linejoin="round"/>
<path fill-rule="evenodd" clip-rule="evenodd" d="M7.77179 9.0166H10.2282V10.1618C10.2282 10.7917 9.71287 11.3071 9.08299 11.3071H8.91702C8.28714 11.3071 7.77179 10.7917 7.77179 10.1618V9.0166Z" stroke="white" stroke-miterlimit="22.9256" stroke-linecap="round" stroke-linejoin="round"/>
</svg>
