<svg width="16" height="17" viewBox="0 0 16 17" fill="none" xmlns="http://www.w3.org/2000/svg">
<g clip-path="url(#clip0_968_2919)">
<path d="M4.99938 9.30534C4.40611 9.30534 3.82616 9.12939 3.33288 8.79975C2.83959 8.4701 2.45512 8.00157 2.22809 7.45339C2.00105 6.90521 1.94165 6.30201 2.05739 5.72007C2.17313 5.13813 2.45882 4.60358 2.87832 4.18402C3.29783 3.76446 3.83231 3.47874 4.41418 3.36298C4.99605 3.24723 5.59918 3.30664 6.14729 3.5337C6.6954 3.76076 7.16388 4.14528 7.49348 4.63863C7.82309 5.13198 7.99901 5.712 7.99901 6.30534C7.99813 7.10072 7.68181 7.86327 7.11947 8.42569C6.55712 8.9881 5.79466 9.30446 4.99938 9.30534ZM4.99938 4.63867C4.66979 4.63867 4.34759 4.73642 4.07355 4.91956C3.7995 5.10269 3.5859 5.36299 3.45977 5.66753C3.33364 5.97208 3.30064 6.30719 3.36494 6.63049C3.42924 6.95379 3.58796 7.25076 3.82102 7.48385C4.05407 7.71694 4.35101 7.87567 4.67427 7.93998C4.99753 8.00429 5.3326 7.97129 5.63711 7.84514C5.94161 7.71899 6.20188 7.50537 6.38499 7.23129C6.56811 6.95721 6.66584 6.63498 6.66584 6.30534C6.66584 5.86331 6.49027 5.43939 6.17775 5.12683C5.86522 4.81427 5.44135 4.63867 4.99938 4.63867ZM9.99876 15.972V15.6387C9.99876 14.3126 9.47204 13.0408 8.53448 12.1031C7.59691 11.1655 6.3253 10.6387 4.99938 10.6387C3.67346 10.6387 2.40185 11.1655 1.46428 12.1031C0.526719 13.0408 0 14.3126 0 15.6387L0 15.972C0 16.1488 0.0702292 16.3184 0.195238 16.4434C0.320247 16.5684 0.489795 16.6387 0.666584 16.6387C0.843373 16.6387 1.01292 16.5684 1.13793 16.4434C1.26294 16.3184 1.33317 16.1488 1.33317 15.972V15.6387C1.33317 14.6662 1.71943 13.7336 2.40698 13.0459C3.09453 12.3583 4.02704 11.972 4.99938 11.972C5.97172 11.972 6.90424 12.3583 7.59179 13.0459C8.27933 13.7336 8.66559 14.6662 8.66559 15.6387V15.972C8.66559 16.1488 8.73582 16.3184 8.86083 16.4434C8.98584 16.5684 9.15539 16.6387 9.33218 16.6387C9.50897 16.6387 9.67852 16.5684 9.80352 16.4434C9.92853 16.3184 9.99876 16.1488 9.99876 15.972ZM15.998 12.6387C15.998 11.7378 15.7372 10.8562 15.2473 10.1003C14.7573 9.34432 14.059 8.7464 13.2367 8.37865C12.4144 8.01091 11.5032 7.88906 10.6132 8.02783C9.72317 8.1666 8.89234 8.56004 8.22098 9.16067C8.15484 9.21881 8.10086 9.28947 8.06217 9.36859C8.02349 9.4477 8.00086 9.5337 7.9956 9.62161C7.99033 9.70952 8.00254 9.7976 8.0315 9.88077C8.06047 9.96393 8.10563 10.0405 8.16436 10.1061C8.2231 10.1718 8.29425 10.2251 8.37371 10.263C8.45317 10.301 8.53936 10.3228 8.62731 10.3273C8.71525 10.3317 8.80321 10.3187 8.88609 10.289C8.96898 10.2592 9.04515 10.2134 9.11021 10.154C9.58978 9.72509 10.1832 9.44415 10.8189 9.34511C11.4546 9.24608 12.1054 9.33317 12.6927 9.59587C13.28 9.85858 13.7787 10.2857 14.1287 10.8256C14.4786 11.3655 14.6648 11.9952 14.6649 12.6387C14.6649 12.8155 14.7351 12.9851 14.8601 13.1101C14.9851 13.2351 15.1546 13.3053 15.3314 13.3053C15.5082 13.3053 15.6778 13.2351 15.8028 13.1101C15.9278 12.9851 15.998 12.8155 15.998 12.6387ZM11.6652 6.63867C11.072 6.63867 10.492 6.46273 9.99872 6.13308C9.50543 5.80344 9.12096 5.3349 8.89393 4.78672C8.66689 4.23855 8.60749 3.63535 8.72323 3.0534C8.83897 2.47146 9.12466 1.93691 9.54417 1.51735C9.96367 1.0978 10.4982 0.812073 11.08 0.696317C11.6619 0.580562 12.265 0.639972 12.8131 0.867035C13.3612 1.0941 13.8297 1.47862 14.1593 1.97196C14.4889 2.46531 14.6649 3.04533 14.6649 3.63867C14.664 4.43405 14.3477 5.1966 13.7853 5.75902C13.223 6.32144 12.4605 6.63779 11.6652 6.63867ZM11.6652 1.97201C11.3356 1.97201 11.0134 2.06975 10.7394 2.25289C10.4653 2.43603 10.2517 2.69632 10.1256 3.00087C9.99948 3.30541 9.96648 3.64052 10.0308 3.96382C10.0951 4.28713 10.2538 4.5841 10.4869 4.81718C10.7199 5.05027 11.0169 5.20901 11.3401 5.27332C11.6634 5.33762 11.9984 5.30462 12.303 5.17847C12.6075 5.05233 12.8677 4.83871 13.0508 4.56462C13.2339 4.29054 13.3317 3.96831 13.3317 3.63867C13.3317 3.19665 13.1561 2.77272 12.8436 2.46016C12.5311 2.1476 12.1072 1.97201 11.6652 1.97201Z" fill="white"/>
</g>
<defs>
<clipPath id="clip0_968_2919">
<rect width="15.998" height="16" fill="white" transform="translate(0 0.638672)"/>
</clipPath>
</defs>
</svg>
