<svg width="10" height="13" viewBox="0 0 10 13" fill="none" xmlns="http://www.w3.org/2000/svg">
<path d="M9.03332 8.86C8.97134 8.79751 8.89761 8.74792 8.81637 8.71407C8.73513 8.68023 8.64799 8.6628 8.55998 8.6628C8.47198 8.6628 8.38484 8.68023 8.3036 8.71407C8.22236 8.74792 8.14862 8.79751 8.08665 8.86L5.66665 11.28V0.666667C5.66665 0.489856 5.59641 0.320286 5.47139 0.195262C5.34636 0.0702377 5.17679 0 4.99998 0C4.82317 0 4.6536 0.0702377 4.52858 0.195262C4.40355 0.320286 4.33332 0.489856 4.33332 0.666667V11.2733L1.91998 8.86C1.86284 8.78187 1.78937 8.71712 1.70468 8.67025C1.61999 8.62338 1.52611 8.59552 1.42956 8.5886C1.33301 8.58167 1.23612 8.59586 1.1456 8.63016C1.05509 8.66447 0.973136 8.71807 0.905431 8.78725C0.837726 8.85642 0.785897 8.93951 0.753547 9.03074C0.721196 9.12197 0.709099 9.21915 0.718097 9.31553C0.727094 9.4119 0.756971 9.50516 0.80565 9.58883C0.854329 9.67249 0.920644 9.74455 0.999983 9.8L3.61332 12.4133C3.98832 12.7879 4.49665 12.9982 5.02665 12.9982C5.55665 12.9982 6.06498 12.7879 6.43998 12.4133L9.05332 9.8C9.17486 9.67247 9.24099 9.50201 9.23724 9.32587C9.23349 9.14974 9.16018 8.98225 9.03332 8.86Z" fill="white"/>
</svg>