<svg width="11" height="9" viewBox="0 0 11 9" fill="none" xmlns="http://www.w3.org/2000/svg">
<path d="M10.25 3.75059H2.75L5.2175 1.28309C5.2878 1.21337 5.34359 1.13042 5.38167 1.03903C5.41974 0.947633 5.43935 0.849603 5.43935 0.750594C5.43935 0.651585 5.41974 0.553556 5.38167 0.462162C5.34359 0.370767 5.2878 0.287817 5.2175 0.218094C5.07698 0.0784061 4.88689 0 4.68875 0C4.49061 0 4.30052 0.0784061 4.16 0.218094L0.9425 3.44309C0.660809 3.72311 0.501675 4.10341 0.5 4.50059C0.50365 4.89517 0.662633 5.27242 0.9425 5.55059L4.16 8.77559C4.22993 8.84503 4.31285 8.90001 4.40403 8.9374C4.49521 8.97479 4.59286 8.99386 4.6914 8.99351C4.78995 8.99316 4.88746 8.97341 4.97837 8.93537C5.06928 8.89734 5.15181 8.84177 5.22125 8.77184C5.29069 8.70191 5.34567 8.61899 5.38306 8.52782C5.42045 8.43664 5.43952 8.33899 5.43917 8.24044C5.43882 8.1419 5.41906 8.04438 5.38103 7.95347C5.343 7.86256 5.28743 7.78003 5.2175 7.7106L2.75 5.25059H10.25C10.4489 5.25059 10.6397 5.17158 10.7803 5.03092C10.921 4.89027 11 4.69951 11 4.50059C11 4.30168 10.921 4.11092 10.7803 3.97026C10.6397 3.82961 10.4489 3.75059 10.25 3.75059Z" fill="white"/>
</svg>
