<svg width="16" height="16" viewBox="0 0 16 16" fill="none" xmlns="http://www.w3.org/2000/svg">
<path d="M14 0H2C0.895503 0 0 0.895503 0 2V14C0 15.1045 0.895503 16 2 16H14C15.1045 16 16 15.1045 16 14V2C16 0.895503 15.1045 0 14 0ZM15 14C15 14.552 14.5525 15 14 15H2C1.4475 15 1 14.552 1 14V2C1 1.4475 1.4475 1 2 1H14C14.5525 1 15 1.4475 15 2V14ZM11 7.5H5.70701L7.7675 5.4395C7.96301 5.244 7.96301 4.9275 7.7675 4.7325C7.572 4.53699 7.2555 4.53699 7.0605 4.7325L4.232 7.56099C4.1125 7.6805 4.07501 7.84499 4.10248 8C4.07498 8.15501 4.1125 8.3195 4.2325 8.4395L7.06099 11.268C7.2565 11.4635 7.57299 11.4635 7.768 11.268C7.96301 11.0725 7.9635 10.756 7.768 10.561L5.70701 8.5H11C11.276 8.5 11.5 8.276 11.5 8C11.5 7.724 11.276 7.5 11 7.5Z" fill="#215154"/>
</svg>
