<svg width="14" height="14" viewBox="0 0 14 14" fill="none" xmlns="http://www.w3.org/2000/svg">
<rect x="0.5" y="0.5" width="13" height="13" rx="2.5" stroke="#D88D49"/>
<path d="M10.0241 9.88088L8.73616 9.53579C8.60608 9.50093 8.50928 9.39079 8.49188 9.25741C8.47424 9.12362 8.53903 8.99259 8.65579 8.92518L9.18366 8.62042L8.22056 6.95231L6.87618 7.72847C6.74251 7.80619 6.57209 7.7802 6.46684 7.66814L3.64682 4.66942C3.5206 4.53518 3.52738 4.32442 3.66121 4.19843C3.74847 4.11621 3.86825 4.09033 3.97611 4.11923C4.03407 4.13476 4.08821 4.16583 4.13221 4.21282L6.77119 7.01913L8.17558 6.20832C8.33521 6.11616 8.5387 6.17068 8.63086 6.33031L9.76093 8.28714L10.2888 7.98238C10.3668 7.93736 10.458 7.9266 10.5417 7.94903C10.5833 7.96016 10.623 7.97943 10.6585 8.00655C10.7655 8.08872 10.8123 8.2272 10.7774 8.35728L10.4323 9.64518C10.3847 9.82291 10.2021 9.92859 10.0241 9.88088Z" fill="#D88D49"/>
</svg>
