<svg width="15" height="15" viewBox="0 0 15 15" fill="none" xmlns="http://www.w3.org/2000/svg">
<path d="M6.00039 10.4958C3.50705 10.4958 1.50045 8.4943 1.50045 6.00039C1.50045 3.50705 3.50705 1.50045 6.00039 1.50045C8.4943 1.50045 10.4958 3.50705 10.4958 6.00039C10.4958 8.4943 8.4943 10.4958 6.00039 10.4958ZM10.7312 9.66857C11.5202 8.65289 11.9954 7.38218 11.9954 6.00039C11.9954 2.69665 9.30498 0 6.00039 0C2.69637 0 0 2.69665 0 6.00039C0 9.30498 2.69637 11.9952 6.00039 11.9952C7.38246 11.9952 8.65318 11.5202 9.66857 10.7309L13.7169 14.7793C13.8581 14.9204 14.0493 15 14.2481 15C14.6603 15 15 14.6603 15 14.2481C15 14.0493 14.9207 13.8578 14.7795 13.7169L10.7312 9.66857Z" fill="#215154"/>
</svg>
