<svg width="10" height="13" viewBox="0 0 10 13" fill="none" xmlns="http://www.w3.org/2000/svg">
<path d="M0.966653 4.14C1.02863 4.20249 1.10236 4.25208 1.1836 4.28593C1.26484 4.31977 1.35198 4.3372 1.43999 4.3372C1.52799 4.3372 1.61513 4.31977 1.69637 4.28593C1.77761 4.25208 1.85134 4.20249 1.91332 4.14L4.33332 1.72V12.3333C4.33332 12.5101 4.40356 12.6797 4.52858 12.8047C4.65361 12.9298 4.82317 13 4.99999 13C5.1768 13 5.34637 12.9298 5.47139 12.8047C5.59641 12.6797 5.66665 12.5101 5.66665 12.3333V1.72667L8.07999 4.14C8.13713 4.21813 8.2106 4.28288 8.29529 4.32975C8.37998 4.37662 8.47386 4.40448 8.57041 4.4114C8.66696 4.41833 8.76385 4.40414 8.85437 4.36984C8.94488 4.33553 9.02683 4.28193 9.09454 4.21275C9.16224 4.14358 9.21407 4.06049 9.24642 3.96926C9.27877 3.87803 9.29087 3.78085 9.28187 3.68447C9.27287 3.5881 9.243 3.49484 9.19432 3.41117C9.14564 3.32751 9.07933 3.25545 8.99999 3.2L6.38665 0.586666C6.01165 0.212132 5.50332 0.00175953 4.97332 0.00175953C4.44332 0.00175953 3.93499 0.212132 3.55999 0.586666L0.946652 3.2C0.825106 3.32753 0.758981 3.49799 0.762729 3.67413C0.766477 3.85026 0.839791 4.01775 0.966653 4.14Z" fill="#215154"/>
</svg>