<svg width="14" height="14" viewBox="0 0 14 14" fill="none" xmlns="http://www.w3.org/2000/svg">
<rect x="0.5" y="0.5" width="13" height="13" rx="2.5" stroke="#215154"/>
<path d="M10.6667 5H9.33331C9.19864 5 9.07664 5.08133 9.0253 5.20567C8.97364 5.33033 9.0023 5.47367 9.09764 5.569L9.52864 6L8.16662 7.362L7.06894 6.26433C6.95994 6.15467 6.7886 6.13567 6.65793 6.21667L3.15788 8.38333C3.00121 8.48033 2.95321 8.68567 3.04988 8.842C3.11288 8.944 3.22188 9 3.33355 9C3.39355 9 3.45389 8.984 3.50855 8.95L6.78394 6.92233L7.93062 8.069C8.06096 8.19933 8.27163 8.19933 8.40196 8.069L9.99998 6.47133L10.431 6.90233C10.4947 6.966 10.58 7 10.6667 7C10.7097 7 10.753 6.99167 10.7943 6.97467C10.919 6.923 11 6.80133 11 6.66667V5.33333C11 5.14933 10.851 5 10.6667 5Z" fill="#215154"/>
</svg>