<svg width="16" height="16" viewBox="0 0 16 16" fill="none" xmlns="http://www.w3.org/2000/svg">
<path d="M16 8.00005C16 10.9407 13.6073 13.3334 10.6667 13.3334H2L3.52867 14.862C3.78933 15.1227 3.78933 15.544 3.52867 15.8047C3.39867 15.9347 3.228 16 3.05733 16C2.88667 16 2.716 15.9347 2.586 15.8047L0.390667 13.6094C-0.129333 13.09 -0.129333 12.2434 0.390667 11.724L2.586 9.52871C2.84667 9.26805 3.268 9.26805 3.52867 9.52871C3.78933 9.78938 3.78933 10.2107 3.52867 10.4714L2 12H10.6667C12.8727 12 14.6667 10.206 14.6667 8.00005C14.6667 7.63138 14.9653 7.33338 15.3333 7.33338C15.7013 7.33338 16 7.63138 16 8.00005ZM0.666667 8.66671C1.03467 8.66671 1.33333 8.36871 1.33333 8.00005C1.33333 5.79404 3.12733 4.00004 5.33333 4.00004H14L12.4713 5.52871C12.2107 5.78938 12.2107 6.21071 12.4713 6.47138C12.6013 6.60138 12.772 6.66671 12.9427 6.66671C13.1133 6.66671 13.284 6.60138 13.414 6.47138L15.6093 4.27604C16.1293 3.75671 16.1293 2.91004 15.6093 2.39071L13.414 0.195378C13.1533 -0.0652888 12.732 -0.0652888 12.4713 0.195378C12.2107 0.456045 12.2107 0.877378 12.4713 1.13804L14 2.66671H5.33333C2.39267 2.66671 0 5.05938 0 8.00005C0 8.36871 0.298667 8.66671 0.666667 8.66671Z" fill="#215154"/>
</svg>
