<svg width="92" height="114" viewBox="0 0 92 114" fill="none" xmlns="http://www.w3.org/2000/svg">
<circle cx="5.13301" cy="5.13301" r="5.13301" fill="white" fill-opacity="0.1"/>
<circle cx="5.13301" cy="25.7084" r="5.13301" fill="white" fill-opacity="0.1"/>
<circle cx="5.13301" cy="46.2838" r="5.13301" fill="white" fill-opacity="0.1"/>
<circle cx="5.13301" cy="66.8591" r="5.13301" fill="white" fill-opacity="0.1"/>
<circle cx="5.13301" cy="87.4345" r="5.13301" fill="white" fill-opacity="0.1"/>
<circle cx="5.13301" cy="108.01" r="5.13301" fill="white" fill-opacity="0.1"/>
<circle cx="25.399" cy="5.13301" r="5.13301" fill="white" fill-opacity="0.1"/>
<circle cx="25.399" cy="25.7084" r="5.13301" fill="white" fill-opacity="0.1"/>
<circle cx="25.399" cy="46.2838" r="5.13301" fill="white" fill-opacity="0.1"/>
<circle cx="25.399" cy="66.8591" r="5.13301" fill="white" fill-opacity="0.1"/>
<circle cx="25.399" cy="87.4345" r="5.13301" fill="white" fill-opacity="0.1"/>
<circle cx="25.399" cy="108.01" r="5.13301" fill="white" fill-opacity="0.1"/>
<circle cx="45.6651" cy="5.13301" r="5.13301" fill="white" fill-opacity="0.1"/>
<circle cx="45.6651" cy="25.7084" r="5.13301" fill="white" fill-opacity="0.1"/>
<circle cx="45.6651" cy="46.2838" r="5.13301" fill="white" fill-opacity="0.1"/>
<circle cx="45.6651" cy="66.8591" r="5.13301" fill="white" fill-opacity="0.1"/>
<circle cx="45.6651" cy="87.4345" r="5.13301" fill="white" fill-opacity="0.1"/>
<circle cx="45.6651" cy="108.01" r="5.13301" fill="white" fill-opacity="0.1"/>
<circle cx="65.9311" cy="5.13301" r="5.13301" fill="white" fill-opacity="0.1"/>
<circle cx="65.9311" cy="25.7084" r="5.13301" fill="white" fill-opacity="0.1"/>
<circle cx="65.9311" cy="46.2838" r="5.13301" fill="white" fill-opacity="0.1"/>
<circle cx="65.9311" cy="66.8591" r="5.13301" fill="white" fill-opacity="0.1"/>
<circle cx="65.9311" cy="87.4345" r="5.13301" fill="white" fill-opacity="0.1"/>
<circle cx="65.9311" cy="108.01" r="5.13301" fill="white" fill-opacity="0.1"/>
<circle cx="86.1971" cy="5.13301" r="5.13301" fill="white" fill-opacity="0.1"/>
<circle cx="86.1971" cy="25.7084" r="5.13301" fill="white" fill-opacity="0.1"/>
<circle cx="86.1971" cy="46.2838" r="5.13301" fill="white" fill-opacity="0.1"/>
<circle cx="86.1971" cy="66.8591" r="5.13301" fill="white" fill-opacity="0.1"/>
<circle cx="86.1971" cy="87.4345" r="5.13301" fill="white" fill-opacity="0.1"/>
<circle cx="86.1971" cy="108.01" r="5.13301" fill="white" fill-opacity="0.1"/>
</svg>
