<svg width="115" height="115" viewBox="0 0 115 115" fill="none" xmlns="http://www.w3.org/2000/svg">
<g clip-path="url(#clip0_376_4021)">
<path d="M113.873 1.1272H1.1275V113.872H113.873V1.1272Z" stroke="white" stroke-width="1.25817"/>
<path d="M33.2824 37.3413C32.7593 36.2409 32.0017 35.3931 31.0095 34.7978C30.0173 34.1844 28.8628 33.8778 27.546 33.8778C26.2291 33.8778 25.0385 34.1844 23.9742 34.7978C22.9279 35.3931 22.0981 36.2589 21.4848 37.3954C20.8895 38.5138 20.5918 39.8127 20.5918 41.2919C20.5918 42.7711 20.8895 44.0699 21.4848 45.1883C22.0981 46.3068 22.9279 47.1727 23.9742 47.786C25.0385 48.3813 26.2291 48.6789 27.546 48.6789C29.386 48.6789 30.9013 48.1287 32.0918 47.0283C33.2824 45.928 33.9769 44.4397 34.1754 42.5636H26.653V40.5613H36.8001V42.4554C36.6558 44.0068 36.1687 45.4319 35.3389 46.7307C34.5091 48.0115 33.4177 49.0307 32.0648 49.7883C30.7118 50.528 29.2056 50.8978 27.546 50.8978C25.7962 50.8978 24.1997 50.4919 22.7566 49.6801C21.3134 48.8503 20.1679 47.7048 19.3201 46.2436C18.4903 44.7825 18.0754 43.1319 18.0754 41.2919C18.0754 39.4519 18.4903 37.8013 19.3201 36.3401C20.1679 34.8609 21.3134 33.7154 22.7566 32.9036C24.1997 32.0738 25.7962 31.6589 27.546 31.6589C29.5483 31.6589 31.3162 32.155 32.8495 33.1472C34.4009 34.1393 35.5283 35.5374 36.2319 37.3413H33.2824ZM42.5182 38.3154C42.9511 37.4676 43.5645 36.8091 44.3582 36.3401C45.1699 35.8711 46.1531 35.6366 47.3076 35.6366V38.1801H46.6582C43.8982 38.1801 42.5182 39.6774 42.5182 42.6719V50.7354H40.0558V35.9072H42.5182V38.3154ZM63.6794 42.753C63.6794 43.2221 63.6524 43.7182 63.5982 44.2413H51.7465C51.8367 45.7025 52.3328 46.848 53.2347 47.6778C54.1547 48.4895 55.2641 48.8954 56.563 48.8954C57.6273 48.8954 58.5112 48.6519 59.2147 48.1648C59.9363 47.6597 60.4414 46.9923 60.73 46.1625H63.3818C62.9849 47.5876 62.1912 48.7511 61.0006 49.6531C59.81 50.537 58.3308 50.9789 56.563 50.9789C55.1559 50.9789 53.8931 50.6632 52.7747 50.0319C51.6743 49.4005 50.8084 48.5076 50.1771 47.3531C49.5457 46.1805 49.23 44.8276 49.23 43.2942C49.23 41.7609 49.5367 40.417 50.15 39.2625C50.7633 38.108 51.6202 37.224 52.7206 36.6107C53.839 35.9793 55.1198 35.6636 56.563 35.6636C57.97 35.6636 59.2147 35.9703 60.2971 36.5836C61.3794 37.197 62.2092 38.0448 62.7865 39.1272C63.3818 40.1915 63.6794 41.4001 63.6794 42.753ZM61.1359 42.2389C61.1359 41.3009 60.9284 40.4981 60.5135 39.8307C60.0986 39.1452 59.5304 38.6311 58.8088 38.2883C58.1053 37.9276 57.3206 37.7472 56.4547 37.7472C55.21 37.7472 54.1457 38.144 53.2618 38.9378C52.3959 39.7315 51.8998 40.8319 51.7735 42.2389H61.1359ZM80.459 42.753C80.459 43.2221 80.432 43.7182 80.3779 44.2413H68.5261C68.6163 45.7025 69.1124 46.848 70.0143 47.6778C70.9343 48.4895 72.0438 48.8954 73.3426 48.8954C74.4069 48.8954 75.2908 48.6519 75.9943 48.1648C76.7159 47.6597 77.221 46.9923 77.5096 46.1625H80.1614C79.7645 47.5876 78.9708 48.7511 77.7802 49.6531C76.5896 50.537 75.1104 50.9789 73.3426 50.9789C71.9355 50.9789 70.6728 50.6632 69.5543 50.0319C68.4539 49.4005 67.5881 48.5076 66.9567 47.3531C66.3253 46.1805 66.0096 44.8276 66.0096 43.2942C66.0096 41.7609 66.3163 40.417 66.9296 39.2625C67.543 38.108 68.3998 37.224 69.5002 36.6107C70.6187 35.9793 71.8994 35.6636 73.3426 35.6636C74.7496 35.6636 75.9943 35.9703 77.0767 36.5836C78.159 37.197 78.9889 38.0448 79.5661 39.1272C80.1614 40.1915 80.459 41.4001 80.459 42.753ZM77.9155 42.2389C77.9155 41.3009 77.7081 40.4981 77.2932 39.8307C76.8783 39.1452 76.31 38.6311 75.5885 38.2883C74.8849 37.9276 74.1002 37.7472 73.2343 37.7472C71.9896 37.7472 70.9253 38.144 70.0414 38.9378C69.1755 39.7315 68.6794 40.8319 68.5532 42.2389H77.9155ZM90.934 35.6366C92.7379 35.6366 94.1991 36.1868 95.3175 37.2872C96.4359 38.3695 96.9951 39.9389 96.9951 41.9954V50.7354H94.5598V42.3472C94.5598 40.868 94.19 39.7405 93.4504 38.9648C92.7108 38.1711 91.7006 37.7742 90.4199 37.7742C89.121 37.7742 88.0838 38.1801 87.3081 38.9919C86.5504 39.8036 86.1716 40.9852 86.1716 42.5366V50.7354H83.7093V35.9072H86.1716V38.0178C86.6587 37.2601 87.3171 36.6738 88.1469 36.2589C88.9948 35.844 89.9238 35.6366 90.934 35.6366Z" fill="white"/>
<path d="M37.3773 82.4931C36.1325 82.4931 35.0141 82.2766 34.022 81.8437C33.0478 81.3927 32.2812 80.7794 31.722 80.0037C31.1627 79.21 30.8741 78.299 30.8561 77.2707H33.4808C33.571 78.1547 33.9318 78.9033 34.5631 79.5166C35.2125 80.1119 36.1506 80.4096 37.3773 80.4096C38.5498 80.4096 39.4698 80.1209 40.1373 79.5437C40.8227 78.9484 41.1655 78.1907 41.1655 77.2707C41.1655 76.5492 40.9671 75.9629 40.5702 75.5119C40.1733 75.0609 39.6773 74.7182 39.082 74.4837C38.4867 74.2492 37.6839 73.9966 36.6737 73.726C35.429 73.4013 34.4278 73.0766 33.6702 72.7519C32.9306 72.4272 32.2902 71.9221 31.749 71.2366C31.2259 70.5331 30.9643 69.5951 30.9643 68.4225C30.9643 67.3943 31.2259 66.4833 31.749 65.6896C32.2722 64.8958 33.0027 64.2825 33.9408 63.8496C34.8969 63.4166 35.9882 63.2001 37.2149 63.2001C38.9827 63.2001 40.4259 63.6421 41.5443 64.526C42.6808 65.41 43.3212 66.5825 43.4655 68.0437H40.7596C40.6694 67.3221 40.2906 66.6907 39.6231 66.1496C38.9557 65.5903 38.0718 65.3107 36.9714 65.3107C35.9431 65.3107 35.1043 65.5813 34.4549 66.1225C33.8055 66.6456 33.4808 67.3852 33.4808 68.3413C33.4808 69.0268 33.6702 69.586 34.049 70.019C34.4459 70.4519 34.9239 70.7856 35.4831 71.0201C36.0604 71.2366 36.8631 71.4892 37.8914 71.7778C39.1361 72.1205 40.1373 72.4633 40.8949 72.806C41.6525 73.1307 42.302 73.6449 42.8431 74.3484C43.3843 75.0339 43.6549 75.9719 43.6549 77.1625C43.6549 78.0825 43.4114 78.9484 42.9243 79.7602C42.4373 80.5719 41.7157 81.2303 40.7596 81.7354C39.8035 82.2405 38.6761 82.4931 37.3773 82.4931ZM48.5502 65.0672C48.0812 65.0672 47.6843 64.9049 47.3596 64.5801C47.0349 64.2554 46.8725 63.8586 46.8725 63.3896C46.8725 62.9205 47.0349 62.5237 47.3596 62.199C47.6843 61.8743 48.0812 61.7119 48.5502 61.7119C49.0012 61.7119 49.38 61.8743 49.6867 62.199C50.0114 62.5237 50.1737 62.9205 50.1737 63.3896C50.1737 63.8586 50.0114 64.2554 49.6867 64.5801C49.38 64.9049 49.0012 65.0672 48.5502 65.0672ZM49.7408 67.4754V82.3037H47.2784V67.4754H49.7408ZM60.0528 67.2319C61.3336 67.2319 62.452 67.5115 63.4081 68.0707C64.3822 68.63 65.1038 69.3335 65.5728 70.1813V67.4754H68.0622V82.6284C68.0622 83.9813 67.7736 85.1809 67.1963 86.2272C66.619 87.2915 65.7892 88.1213 64.7069 88.7166C63.6426 89.3119 62.3979 89.6096 60.9728 89.6096C59.0245 89.6096 57.401 89.1496 56.1022 88.2296C54.8034 87.3096 54.0367 86.0558 53.8022 84.4684H56.2375C56.5081 85.3703 57.0673 86.0919 57.9151 86.6331C58.763 87.1923 59.7822 87.4719 60.9728 87.4719C62.3257 87.4719 63.4261 87.048 64.274 86.2001C65.1398 85.3523 65.5728 84.1617 65.5728 82.6284V79.5166C65.0857 80.3825 64.3641 81.1041 63.4081 81.6813C62.452 82.2586 61.3336 82.5472 60.0528 82.5472C58.7359 82.5472 57.5363 82.2225 56.454 81.5731C55.3896 80.9237 54.5508 80.0127 53.9375 78.8402C53.3241 77.6676 53.0175 76.3327 53.0175 74.8354C53.0175 73.3201 53.3241 71.9943 53.9375 70.8578C54.5508 69.7033 55.3896 68.8103 56.454 68.179C57.5363 67.5476 58.7359 67.2319 60.0528 67.2319ZM65.5728 74.8625C65.5728 73.7441 65.3473 72.77 64.8963 71.9401C64.4453 71.1103 63.832 70.479 63.0563 70.046C62.2987 69.595 61.4598 69.3696 60.5398 69.3696C59.6198 69.3696 58.781 69.586 58.0234 70.019C57.2657 70.4519 56.6614 71.0833 56.2104 71.9131C55.7594 72.7429 55.5339 73.717 55.5339 74.8354C55.5339 75.9719 55.7594 76.9641 56.2104 77.8119C56.6614 78.6417 57.2657 79.2821 58.0234 79.7331C58.781 80.166 59.6198 80.3825 60.5398 80.3825C61.4598 80.3825 62.2987 80.166 63.0563 79.7331C63.832 79.2821 64.4453 78.6417 64.8963 77.8119C65.3473 76.9641 65.5728 75.9809 65.5728 74.8625ZM79.5833 67.2049C80.7017 67.2049 81.7119 67.4484 82.6139 67.9354C83.5158 68.4045 84.2193 69.117 84.7244 70.0731C85.2476 71.0292 85.5092 72.1927 85.5092 73.5637V82.3037H83.0739V73.9154C83.0739 72.4362 82.7041 71.3088 81.9644 70.5331C81.2248 69.7394 80.2146 69.3425 78.9339 69.3425C77.635 69.3425 76.5978 69.7484 75.8221 70.5601C75.0644 71.3719 74.6856 72.5535 74.6856 74.1049V82.3037H72.2233V62.2802H74.6856V69.586C75.1727 68.8284 75.8401 68.2421 76.688 67.8272C77.5539 67.4123 78.519 67.2049 79.5833 67.2049ZM92.535 69.5049V78.2449C92.535 78.9664 92.6883 79.4805 92.995 79.7872C93.3016 80.0758 93.8338 80.2201 94.5914 80.2201H96.4044V82.3037H94.1856C92.8146 82.3037 91.7863 81.988 91.1009 81.3566C90.4154 80.7253 90.0726 79.688 90.0726 78.2449V69.5049H88.1514V67.4754H90.0726V63.7413H92.535V67.4754H96.4044V69.5049H92.535Z" fill="white"/>
<path d="M96.9607 85.6865H72.1568V86.814H96.9607V85.6865Z" fill="white"/>
</g>
<defs>
<clipPath id="clip0_376_4021">
<rect width="115" height="115" fill="white"/>
</clipPath>
</defs>
</svg>
