<svg width="22" height="23" viewBox="0 0 22 23" fill="none" xmlns="http://www.w3.org/2000/svg">
<g clip-path="url(#clip0_13_264)">
<path d="M16.4742 7.96265H7.08984V5.38976C7.08984 4.41287 7.47791 3.476 8.16868 2.78523C8.85944 2.09446 9.79632 1.7064 10.7732 1.7064H11.2268C12.2037 1.7064 13.1406 2.09446 13.8313 2.78523C14.5221 3.476 14.9102 4.41287 14.9102 5.38976C14.9102 5.59717 14.9925 5.79608 15.1392 5.94274C15.2859 6.0894 15.4848 6.17179 15.6922 6.17179C15.8996 6.17179 16.0985 6.0894 16.2452 5.94274C16.3918 5.79608 16.4742 5.59717 16.4742 5.38976C16.4721 3.99869 15.9186 2.66519 14.935 1.68156C13.9514 0.697919 12.6179 0.144402 11.2268 0.142334H10.7732C9.38214 0.144402 8.04864 0.697919 7.065 1.68156C6.08137 2.66519 5.52785 3.99869 5.52578 5.38976V7.96265C4.90356 7.96265 4.30682 8.20982 3.86684 8.6498C3.42686 9.08978 3.17969 9.68652 3.17969 10.3087V17.5816C3.18176 18.7632 3.65206 19.8958 4.48757 20.7313C5.32308 21.5668 6.45568 22.0371 7.63727 22.0392H14.3627C15.5443 22.0371 16.6769 21.5668 17.5124 20.7313C18.3479 19.8958 18.8182 18.7632 18.8203 17.5816V10.3087C18.8203 9.68652 18.5731 9.08978 18.1332 8.6498C17.6932 8.20982 17.0964 7.96265 16.4742 7.96265ZM17.2562 17.5816C17.2562 18.349 16.9514 19.085 16.4088 19.6277C15.8661 20.1703 15.1301 20.4751 14.3627 20.4751H7.63727C6.86986 20.4751 6.13388 20.1703 5.59124 19.6277C5.0486 19.085 4.74375 18.349 4.74375 17.5816V10.3087C4.74375 10.1013 4.82614 9.90242 4.9728 9.75576C5.11946 9.6091 5.31837 9.52671 5.52578 9.52671H16.4742C16.6816 9.52671 16.8805 9.6091 17.0272 9.75576C17.1739 9.90242 17.2562 10.1013 17.2562 10.3087V17.5816ZM11.782 14.782V17.347C11.782 17.5544 11.6996 17.7533 11.553 17.9C11.4063 18.0467 11.2074 18.1291 11 18.1291C10.7926 18.1291 10.5937 18.0467 10.447 17.9C10.3004 17.7533 10.218 17.5544 10.218 17.347V14.782C9.91979 14.6098 9.68675 14.3441 9.55499 14.026C9.42323 13.7079 9.40012 13.3552 9.48923 13.0226C9.57834 12.6901 9.7747 12.3962 10.0479 12.1866C10.321 11.977 10.6557 11.8634 11 11.8634C11.3443 11.8634 11.679 11.977 11.9521 12.1866C12.2253 12.3962 12.4217 12.6901 12.5108 13.0226C12.5999 13.3552 12.5768 13.7079 12.445 14.026C12.3132 14.3441 12.0802 14.6098 11.782 14.782Z" fill="#929597"/>
</g>
<defs>
<clipPath id="clip0_13_264">
<rect width="22" height="22" fill="white" transform="translate(0 0.0993652)"/>
</clipPath>
</defs>
</svg>
