<svg width="17" height="23" viewBox="0 0 17 23" fill="none" xmlns="http://www.w3.org/2000/svg">
<path d="M8.5 11.0497C9.62076 11.0497 10.7164 10.7271 11.6482 10.1228C12.5801 9.51842 13.3064 8.65944 13.7353 7.65444C14.1642 6.64945 14.2764 5.54358 14.0578 4.47669C13.8391 3.40979 13.2994 2.42979 12.5069 1.6606C11.7144 0.891409 10.7047 0.367585 9.60551 0.155366C8.50629 -0.0568527 7.36691 0.0520657 6.33146 0.468348C5.29601 0.884629 4.411 1.58958 3.78834 2.49405C3.16568 3.39852 2.83333 4.46189 2.83333 5.54968C2.83483 7.00793 3.43234 8.40603 4.49472 9.43716C5.5571 10.4683 6.99757 11.0482 8.5 11.0497ZM8.5 1.88302C9.24717 1.88302 9.97757 2.09806 10.5988 2.50096C11.2201 2.90386 11.7043 3.47652 11.9902 4.14651C12.2761 4.81651 12.351 5.55375 12.2052 6.26502C12.0594 6.97628 11.6996 7.62962 11.1713 8.14241C10.643 8.6552 9.96982 9.00442 9.23701 9.1459C8.50419 9.28738 7.74461 9.21476 7.05431 8.93724C6.36401 8.65972 5.774 8.18976 5.35889 7.58678C4.94379 6.9838 4.72222 6.27488 4.72222 5.54968C4.72222 4.57722 5.12024 3.64459 5.82871 2.95696C6.53718 2.26933 7.49807 1.88302 8.5 1.88302Z" fill="#929597"/>
<path d="M8.5 12.883C6.24643 12.8854 4.08587 13.7554 2.49235 15.3021C0.898836 16.8487 0.00249981 18.9457 0 21.133C0 21.3761 0.0995036 21.6093 0.276621 21.7812C0.453739 21.9531 0.693962 22.0497 0.944444 22.0497C1.19493 22.0497 1.43515 21.9531 1.61227 21.7812C1.78938 21.6093 1.88889 21.3761 1.88889 21.133C1.88889 19.4312 2.58541 17.7991 3.82524 16.5957C5.06506 15.3924 6.74662 14.7163 8.5 14.7163C10.2534 14.7163 11.9349 15.3924 13.1748 16.5957C14.4146 17.7991 15.1111 19.4312 15.1111 21.133C15.1111 21.3761 15.2106 21.6093 15.3877 21.7812C15.5648 21.9531 15.8051 22.0497 16.0556 22.0497C16.306 22.0497 16.5463 21.9531 16.7234 21.7812C16.9005 21.6093 17 21.3761 17 21.133C16.9975 18.9457 16.1012 16.8487 14.5076 15.3021C12.9141 13.7554 10.7536 12.8854 8.5 12.883Z" fill="#929597"/>
</svg>
