<svg width="24" height="24" viewBox="0 0 24 24" fill="none" xmlns="http://www.w3.org/2000/svg">
<path d="M14 11H1C0.447715 11 0 11.4477 0 12C0 12.5523 0.447715 13 1 13H14C14.5523 13 15 12.5523 15 12C15 11.4477 14.5523 11 14 11Z" fill="#215154"/>
<path d="M20 4H1C0.447715 4 0 4.44772 0 5C0 5.55228 0.447715 6 1 6H20C20.5523 6 21 5.55228 21 5C21 4.44772 20.5523 4 20 4Z" fill="#215154"/>
<path d="M23 18H1C0.447715 18 0 18.4477 0 19C0 19.5523 0.447715 20 1 20H23C23.5523 20 24 19.5523 24 19C24 18.4477 23.5523 18 23 18Z" fill="#215154"/>
</svg>
