<svg width="24" height="24" viewBox="0 0 24 24" fill="none" xmlns="http://www.w3.org/2000/svg">
<path d="M19.5 13.5758V11.1825C19.4975 9.33044 18.8044 7.54588 17.5561 6.17773C16.3078 4.80957 14.5941 3.95619 12.75 3.78442V2.25C12.75 2.05109 12.671 1.86032 12.5303 1.71967C12.3897 1.57902 12.1989 1.5 12 1.5C11.8011 1.5 11.6103 1.57902 11.4697 1.71967C11.329 1.86032 11.25 2.05109 11.25 2.25V3.78457C9.40595 3.95633 7.69225 4.8097 6.44395 6.17782C5.19565 7.54595 4.50249 9.33047 4.5 11.1825V13.5757C3.65363 13.7496 2.89311 14.2101 2.34663 14.8794C1.80016 15.5487 1.50115 16.3859 1.5 17.25C1.50066 17.8465 1.73792 18.4185 2.15973 18.8403C2.58155 19.2621 3.15346 19.4993 3.75 19.5H8.32582C8.49875 20.3468 8.9589 21.1079 9.62841 21.6545C10.2979 22.2011 11.1357 22.4997 12 22.4997C12.8643 22.4997 13.7021 22.2011 14.3716 21.6545C15.0411 21.1079 15.5012 20.3468 15.6742 19.5H20.25C20.8465 19.4993 21.4185 19.2621 21.8403 18.8403C22.2621 18.4185 22.4993 17.8465 22.5 17.25C22.4988 16.386 22.1998 15.5487 21.6533 14.8795C21.1068 14.2102 20.3463 13.7498 19.5 13.5758ZM6 11.1825C6.00198 9.60971 6.62765 8.10191 7.73978 6.98978C8.85191 5.87765 10.3597 5.25198 11.9325 5.25H12.0675C13.6403 5.25198 15.1481 5.87765 16.2602 6.98978C17.3723 8.10191 17.998 9.60971 18 11.1825V13.5H6V11.1825ZM12 21C11.5362 20.9986 11.0842 20.8536 10.7061 20.5851C10.328 20.3165 10.0423 19.9374 9.88823 19.5H14.1118C13.9577 19.9374 13.672 20.3165 13.2939 20.5851C12.9158 20.8536 12.4638 20.9986 12 21ZM20.25 18H3.75C3.55112 17.9999 3.36043 17.9208 3.2198 17.7802C3.07918 17.6396 3.00012 17.4489 3 17.25C3.00066 16.6535 3.23792 16.0815 3.65973 15.6597C4.08155 15.2379 4.65346 15.0007 5.25 15H18.75C19.3465 15.0007 19.9185 15.2379 20.3403 15.6597C20.7621 16.0815 20.9993 16.6535 21 17.25C20.9999 17.4489 20.9208 17.6396 20.7802 17.7802C20.6396 17.9208 20.4489 17.9999 20.25 18Z" fill="#181A1C"/>
</svg>
