<svg width="16" height="17" viewBox="0 0 16 17" fill="none" xmlns="http://www.w3.org/2000/svg">
<g clip-path="url(#clip0_232_5658)">
<path d="M7.9987 5.83337C7.47128 5.83337 6.95571 5.98977 6.51718 6.28279C6.07865 6.57581 5.73685 6.99228 5.53502 7.47955C5.33319 7.96682 5.28038 8.503 5.38327 9.02028C5.48617 9.53756 5.74014 10.0127 6.11308 10.3857C6.48602 10.7586 6.96118 11.0126 7.47846 11.1155C7.99574 11.2184 8.53192 11.1656 9.01919 10.9637C9.50646 10.7619 9.92293 10.4201 10.216 9.98156C10.509 9.54303 10.6654 9.02746 10.6654 8.50004C10.6654 7.7928 10.3844 7.11452 9.88432 6.61442C9.38422 6.11433 8.70594 5.83337 7.9987 5.83337ZM7.9987 9.83337C7.73499 9.83337 7.4772 9.75518 7.25794 9.60867C7.03867 9.46216 6.86778 9.25392 6.76686 9.01029C6.66594 8.76665 6.63954 8.49856 6.69099 8.23992C6.74243 7.98128 6.86942 7.7437 7.05589 7.55723C7.24236 7.37076 7.47994 7.24377 7.73858 7.19233C7.99722 7.14088 8.26531 7.16728 8.50894 7.2682C8.75258 7.36912 8.96082 7.54002 9.10732 7.75928C9.25383 7.97855 9.33203 8.23633 9.33203 8.50004C9.33203 8.85366 9.19156 9.1928 8.94151 9.44285C8.69146 9.6929 8.35232 9.83337 7.9987 9.83337Z" fill="white"/>
<path d="M14.1946 9.76667L13.8986 9.596C14.0318 8.87096 14.0318 8.12771 13.8986 7.40267L14.1946 7.232C14.4222 7.10068 14.6217 6.92581 14.7818 6.71737C14.9418 6.50894 15.0592 6.27103 15.1273 6.01721C15.1954 5.7634 15.2129 5.49866 15.1786 5.23811C15.1444 4.97755 15.0592 4.72629 14.9279 4.49867C14.7966 4.27104 14.6217 4.07151 14.4133 3.91147C14.2048 3.75143 13.9669 3.634 13.7131 3.56591C13.4593 3.49781 13.1946 3.48037 12.934 3.51459C12.6735 3.54881 12.4222 3.63401 12.1946 3.76533L11.8979 3.93667C11.3376 3.45795 10.6937 3.08683 9.99856 2.842V2.5C9.99856 1.96957 9.78785 1.46086 9.41278 1.08579C9.03771 0.710714 8.529 0.5 7.99856 0.5C7.46813 0.5 6.95942 0.710714 6.58435 1.08579C6.20928 1.46086 5.99856 1.96957 5.99856 2.5V2.842C5.30349 3.08771 4.6598 3.45973 4.0999 3.93933L3.8019 3.76667C3.34219 3.50145 2.79595 3.42971 2.28335 3.56724C1.77075 3.70477 1.33378 4.04029 1.06856 4.5C0.803347 4.95971 0.731612 5.50595 0.869139 6.01855C1.00667 6.53114 1.34219 6.96812 1.8019 7.23333L2.0979 7.404C1.96464 8.12904 1.96464 8.87229 2.0979 9.59733L1.8019 9.768C1.34219 10.0332 1.00667 10.4702 0.869139 10.9828C0.731612 11.4954 0.803347 12.0416 1.06856 12.5013C1.33378 12.961 1.77075 13.2966 2.28335 13.4341C2.79595 13.5716 3.34219 13.4999 3.8019 13.2347L4.09856 13.0633C4.65907 13.5421 5.30322 13.9132 5.99856 14.158V14.5C5.99856 15.0304 6.20928 15.5391 6.58435 15.9142C6.95942 16.2893 7.46813 16.5 7.99856 16.5C8.529 16.5 9.03771 16.2893 9.41278 15.9142C9.78785 15.5391 9.99856 15.0304 9.99856 14.5V14.158C10.6936 13.9123 11.3373 13.5403 11.8972 13.0607L12.1952 13.2327C12.6549 13.4979 13.2012 13.5696 13.7138 13.4321C14.2264 13.2946 14.6633 12.959 14.9286 12.4993C15.1938 12.0396 15.2655 11.4934 15.128 10.9808C14.9905 10.4682 14.6543 10.0319 14.1946 9.76667ZM12.4959 7.24933C12.7217 8.06738 12.7217 8.93129 12.4959 9.74933C12.4565 9.89171 12.4655 10.0432 12.5215 10.1799C12.5774 10.3166 12.6773 10.4308 12.8052 10.5047L13.5279 10.922C13.6811 11.0104 13.7929 11.1561 13.8387 11.3269C13.8846 11.4977 13.8606 11.6798 13.7722 11.833C13.6838 11.9862 13.5382 12.098 13.3673 12.1438C13.1965 12.1897 13.0144 12.1657 12.8612 12.0773L12.1372 11.6587C12.0092 11.5845 11.86 11.555 11.7134 11.575C11.5667 11.5949 11.4309 11.663 11.3272 11.7687C10.7338 12.3744 9.98628 12.8067 9.16523 13.0187C9.02192 13.0555 8.89494 13.139 8.80429 13.2559C8.71365 13.3729 8.66449 13.5167 8.66456 13.6647V14.5C8.66456 14.6768 8.59433 14.8464 8.4693 14.9714C8.34428 15.0964 8.17471 15.1667 7.9979 15.1667C7.82109 15.1667 7.65152 15.0964 7.52649 14.9714C7.40147 14.8464 7.33123 14.6768 7.33123 14.5V13.6653C7.3313 13.5174 7.28215 13.3736 7.1915 13.2566C7.10086 13.1397 6.97388 13.0562 6.83056 13.0193C6.00946 12.8065 5.26212 12.3733 4.66923 11.7667C4.56558 11.661 4.42972 11.5929 4.28307 11.573C4.13641 11.553 3.9873 11.5825 3.85923 11.6567L3.13656 12.0747C3.06072 12.1191 2.97682 12.1482 2.88971 12.1601C2.8026 12.172 2.714 12.1665 2.629 12.1441C2.544 12.1216 2.46429 12.0825 2.39444 12.0291C2.3246 11.9757 2.26602 11.909 2.22205 11.8329C2.17809 11.7567 2.14963 11.6727 2.1383 11.5855C2.12696 11.4983 2.13299 11.4097 2.15602 11.3249C2.17906 11.24 2.21865 11.1606 2.27252 11.0911C2.32639 11.0216 2.39347 10.9635 2.4699 10.92L3.19256 10.5027C3.32053 10.4288 3.42035 10.3146 3.47634 10.1779C3.53233 10.0412 3.54132 9.88972 3.5019 9.74733C3.27614 8.92929 3.27614 8.06538 3.5019 7.24733C3.54061 7.10525 3.53119 6.95436 3.47511 6.81819C3.41903 6.68203 3.31944 6.56827 3.1919 6.49467L2.46923 6.07733C2.31602 5.98893 2.20421 5.84328 2.15839 5.67244C2.11257 5.50159 2.13649 5.31954 2.2249 5.16633C2.3133 5.01313 2.45895 4.90131 2.62979 4.85549C2.80064 4.80967 2.98269 4.83359 3.1359 4.922L3.8599 5.34067C3.98762 5.41501 4.13642 5.44481 4.28292 5.42538C4.42941 5.40595 4.5653 5.3384 4.66923 5.23333C5.26262 4.62756 6.01018 4.19535 6.83123 3.98333C6.97499 3.94638 7.1023 3.8625 7.19299 3.745C7.28368 3.6275 7.33256 3.48309 7.3319 3.33467V2.5C7.3319 2.32319 7.40214 2.15362 7.52716 2.0286C7.65218 1.90357 7.82175 1.83333 7.99856 1.83333C8.17537 1.83333 8.34494 1.90357 8.46997 2.0286C8.59499 2.15362 8.66523 2.32319 8.66523 2.5V3.33467C8.66516 3.48264 8.71432 3.62643 8.80496 3.74339C8.89561 3.86035 9.02259 3.94382 9.1659 3.98067C9.98724 4.19343 10.7348 4.62659 11.3279 5.23333C11.4315 5.33898 11.5674 5.40713 11.7141 5.42704C11.8607 5.44696 12.0098 5.41751 12.1379 5.34333L12.8606 4.92533C12.9364 4.88087 13.0203 4.85185 13.1074 4.83993C13.1945 4.82802 13.2831 4.83346 13.3681 4.85593C13.4531 4.87841 13.5328 4.91747 13.6027 4.97088C13.6725 5.02428 13.7311 5.09097 13.7751 5.16712C13.819 5.24326 13.8475 5.32734 13.8588 5.41453C13.8702 5.50171 13.8641 5.59028 13.8411 5.67513C13.8181 5.75998 13.7785 5.83943 13.7246 5.90892C13.6707 5.9784 13.6037 6.03655 13.5272 6.08L12.8046 6.49733C12.6773 6.57114 12.578 6.68498 12.5221 6.82113C12.4663 6.95727 12.4571 7.1074 12.4959 7.24933Z" fill="white"/>
</g>
<defs>
<clipPath id="clip0_232_5658">
<rect width="16" height="16" fill="white" transform="translate(0 0.5)"/>
</clipPath>
</defs>
</svg>
